/* XPM */
static char *fc4b366e307b49568b260f541d205ee0gcVqzksnqr8AX8Of[] = {
/* columns rows colors chars-per-pixel */
"64 64 9 1 ",
"  c None",
". c black",
"X c #587B22",
"o c #59752D",
"O c #DE7B20",
"+ c #85A74F",
"@ c #FE9F49",
"# c #A5C377",
"$ c #FFBF85",
/* pixels */
"                                                                ",
"                                                                ",
"                                                      ....      ",
"                                                      ....      ",
"                                                    ..####..    ",
"                                                    ..####..    ",
"                                              ....  ..++++##..  ",
"                                              ....  ..++++##..  ",
"                                            ..####..++##++XX..  ",
"                                            ..####..++##++XX..  ",
"                                              ..++##oo++....    ",
"                                              ..++##oo++....    ",
"                                        ....  ..##++++..        ",
"                                        ....  ..##++++..        ",
"                                      ..####..++++++++XX..      ",
"                                      ..####..++++++++XX..      ",
"                                      ..++++##oo++....XX..      ",
"                                      ..++++##oo++....XX..      ",
"                                        ..++++++..    ..        ",
"                                        ..++++++..    ..        ",
"                                      ..##++++++XX..            ",
"                                      ..##++++++XX..            ",
"                                    ....++++..XXXX..            ",
"                                    ....++++..XXXX..            ",
"                                ....OOoo....  ....              ",
"                                ....OOoo....  ....              ",
"                              ..OO@@@@OO..                      ",
"                              ..OO@@@@OO..                      ",
"                          ....$$@@OO@@..                        ",
"                          ....$$@@OO@@..                        ",
"                        ..$$OO@@@@@@OO..                        ",
"                        ..$$OO@@@@@@OO..                        ",
"                      ..$$@@@@OO@@@@..                          ",
"                      ..$$@@@@OO@@@@..                          ",
"                    ..OO@@@@@@@@OO..                            ",
"                    ..OO@@@@@@@@OO..                            ",
"                  ..$$@@OO@@@@@@@@..                            ",
"                  ..$$@@OO@@@@@@@@..                            ",
"                ..$$@@@@@@OO@@@@..                              ",
"                ..$$@@@@@@OO@@@@..                              ",
"                ..OO@@@@@@@@OO..                                ",
"                ..OO@@@@@@@@OO..                                ",
"              ..$$@@OO@@@@@@..                                  ",
"              ..$$@@OO@@@@@@..                                  ",
"            ..$$@@@@@@OO@@..                                    ",
"            ..$$@@@@@@OO@@..                                    ",
"          ..$$OO@@@@@@....                                      ",
"          ..$$OO@@@@@@....                                      ",
"        ..$$@@@@OO@@..                                          ",
"        ..$$@@@@OO@@..                                          ",
"        ..@@@@@@@@..                                            ",
"        ..@@@@@@@@..                                            ",
"      ..$$OO@@@@..                                              ",
"      ..$$OO@@@@..                                              ",
"    ..$$@@@@....                                                ",
"    ..$$@@@@....                                                ",
"    ..@@@@..                                                    ",
"    ..@@@@..                                                    ",
"    ......                                                      ",
"    ......                                                      ",
"                                                                ",
"                                                                ",
"                                                                ",
"                                                                "
};
