/* XPM */
static char *_d5d8fc01740447ffcbacc81b9496e8eg5IoKl3saV3Ykphn[] = {
/* columns rows colors chars-per-pixel */
"64 64 13 1 ",
"  c #6F4D20",
". c #826133",
"X c #8A6B3F",
"o c #997645",
"O c #99794B",
"+ c #A98756",
"@ c #87816C",
"# c #BD9F74",
"$ c #979486",
"% c #B9AF82",
"& c #A6A295",
"* c #C8BE94",
"= c #CFCBBB",
/* pixels */
"@@@@@@@@@@@@@@@@@@@@@@@@@@@@@@@@@@@@@@@@@@@@@@@@@@@@@@@@@@@@@@@@",
"@@@@@@@@@@@@@@@@@@@@@@@@@@@@@@@@@@@@@@@@@@@@@@@@@@@@@@@@@@@@@@@@",
"%%%%%%%%%%%%%%%%%%%%%%%%%%%%%%%%%%%%%%%%%%%%%%%%%%@@@@%%%%%%%%%%",
"%%%%%%%%%%%%%%%%%%%%%%%%%%%%%%%%%%%%%%%%%%%%%%%%%%@@@@%%%%%%%%%%",
"************************************************%%@@@@%%********",
"************************************************%%@@@@%%********",
"******@@@@@@@@@@@@@@@@@@@@@@@@@@@@@@@@@@@@@@@@@@@@@@@@@@@@******",
"******@@@@@@@@@@@@@@@@@@@@@@@@@@@@@@@@@@@@@@@@@@@@@@@@@@@@******",
"******@@====&&&&&&&&&&&&&&&&&&&&&&&&&&&&&&&&&&&&&&&&====@@******",
"******@@====&&&&&&&&&&&&&&&&&&&&&&&&&&&&&&&&&&&&&&&&====@@******",
"******@@==$$$$$$$$$$$$$$$$$$$$$$$$$$$$$$$$$$$$$$$$$$$$==@@******",
"******@@==$$$$$$$$$$$$$$$$$$$$$$$$$$$$$$$$$$$$$$$$$$$$==@@******",
"******@@&&$$  ....................................  $$&&@@******",
"******@@&&$$  ....................................  $$&&@@******",
"******@@&&$$..oooo..oooo...oooo..oooo...oooo..oooo..$$&&@@******",
"******@@&&$$..oooo..oooo...oooo..oooo...oooo..oooo..$$&&@@******",
"******@@&&$$..oo++..++oo...oo++..++oo...oo++..++oo..$$&&@@******",
"******@@&&$$..oo++..++oo...oo++..++oo...oo++..++oo..$$&&@@******",
"******@@&&$$..oo++..++oo...oo++..++oo...oo++..++oo..$$&&@@******",
"******@@&&$$..oo++..++oo...oo++..++oo...oo++..++oo..$$&&@@******",
"******@@&&$$..oo++..++oo...oo++..++oo...oo++..++oo..$$&&@@******",
"******@@&&$$..oo++..++oo...oo++..++oo...oo++..++oo..$$&&@@******",
"******@@&&$$..oo++..++oo...oo++..++oo...oo++..++oo..$$&&@@******",
"******@@&&$$..oo++..++oo...oo++..++oo...oo++..++oo..$$&&@@******",
"******@@&&$$..oo++..++oo...oo++..++oo...oo++..++oo..$$&&@@******",
"******@@&&$$..oo++..++oo...oo++..++oo...oo++..++oo..$$&&@@******",
"******@@&&$$..oo++..++oo...oo++..++oo...oo++..++oo..$$&&@@******",
"******@@&&$$..oo++..++oo...oo++..++oo...oo++..++oo..$$&&@@******",
"%%%%%%@@&&$$OOXXXXXX++oo...oo++..++oo...oo++..++oo..$$&&@@%%%%%%",
"%%%%%%@@&&$$OOXXXXXX++oo...oo++..++oo...oo++..++oo..$$&&@@%%%%%%",
"@@@@@@@@&&$$XX####XX++oo...oo++..++oo...oo++..++oo..$$&&@@@@@@@@",
"@@@@@@@@&&$$XX####XX++oo...oo++..++oo...oo++..++oo..$$&&@@@@@@@@",
"@@@@@@@@&&$$XX####XX++oo...oo++..++oo...oo++..++oo..$$&&@@@@@@@@",
"@@@@@@@@&&$$XX####XX++oo...oo++..++oo...oo++..++oo..$$&&@@@@@@@@",
"%%%%%%@@&&$$XXXXXXOO++oo...oo++..++oo...oo++..++oo..$$&&@@%%%%%%",
"%%%%%%@@&&$$XXXXXXOO++oo...oo++..++oo...oo++..++oo..$$&&@@%%%%%%",
"******@@&&$$..oo++..++oo...oo++..++oo...oo++..++oo..$$&&@@******",
"******@@&&$$..oo++..++oo...oo++..++oo...oo++..++oo..$$&&@@******",
"******@@&&$$..oo++..++oo...oo++..++oo...oo++..++oo..$$&&@@******",
"******@@&&$$..oo++..++oo...oo++..++oo...oo++..++oo..$$&&@@******",
"******@@&&$$..oo++..++oo...oo++..++oo...oo++..++oo..$$&&@@******",
"******@@&&$$..oo++..++oo...oo++..++oo...oo++..++oo..$$&&@@******",
"******@@&&$$..oo++..++oo...oo++..++oo...oo++..++oo..$$&&@@******",
"******@@&&$$..oo++..++oo...oo++..++oo...oo++..++oo..$$&&@@******",
"******@@&&$$..oo++..++oo...oo++..++oo...oo++..++oo..$$&&@@******",
"******@@&&$$..oo++..++oo...oo++..++oo...oo++..++oo..$$&&@@******",
"******@@&&$$..oo++..++oo...oo++..++oo...oo++..++oo..$$&&@@******",
"******@@&&$$..oo++..++oo...oo++..++oo...oo++..++oo..$$&&@@******",
"******@@&&$$..oooo..oooo...oooo..oooo...oooo..oooo..$$&&@@******",
"******@@&&$$..oooo..oooo...oooo..oooo...oooo..oooo..$$&&@@******",
"******@@&&$$  ....................................  $$&&@@******",
"******@@&&$$  ....................................  $$&&@@******",
"******@@==$$$$$$$$$$$$$$$$$$$$$$$$$$$$$$$$$$$$$$$$$$$$==@@******",
"******@@==$$$$$$$$$$$$$$$$$$$$$$$$$$$$$$$$$$$$$$$$$$$$==@@******",
"******@@====&&&&&&&&&&&&&&&&&&&&&&&&&&&&&&&&&&&&&&&&====@@******",
"******@@====&&&&&&&&&&&&&&&&&&&&&&&&&&&&&&&&&&&&&&&&====@@******",
"******@@@@@@@@@@@@@@@@@@@@@@@@@@@@@@@@@@@@@@@@@@@@@@@@@@@@******",
"******@@@@@@@@@@@@@@@@@@@@@@@@@@@@@@@@@@@@@@@@@@@@@@@@@@@@******",
"******%%@@@@%%**************************************************",
"******%%@@@@%%**************************************************",
"%%%%%%%%@@@@%%%%%%%%%%%%%%%%%%%%%%%%%%%%%%%%%%%%%%%%%%%%%%%%%%%%",
"%%%%%%%%@@@@%%%%%%%%%%%%%%%%%%%%%%%%%%%%%%%%%%%%%%%%%%%%%%%%%%%%",
"@@@@@@@@@@@@@@@@@@@@@@@@@@@@@@@@@@@@@@@@@@@@@@@@@@@@@@@@@@@@@@@@",
"@@@@@@@@@@@@@@@@@@@@@@@@@@@@@@@@@@@@@@@@@@@@@@@@@@@@@@@@@@@@@@@@"
};
