/* XPM */
static char *_5269d63e9f54752db74ec5004c88329W228uI4qnhAibUmw[] = {
/* columns rows colors chars-per-pixel */
"64 64 11 1 ",
"  c None",
". c black",
"X c #483C41",
"o c #69575D",
"O c #786C70",
"+ c #C64570",
"@ c #F676A1",
"# c #AE9FA3",
"$ c #B7B4B5",
"% c #E7E7E7",
"& c #F9F9F9",
/* pixels */
"                  ..$$$$..            ..$$$$..                  ",
"                  ..$$$$..            ..$$$$..                  ",
"                  ..$$%%$$..        ..$$%%$$..                  ",
"                  ..$$%%$$..        ..$$%%$$..                  ",
"                  ..$$%%$$..        ..$$%%$$..                  ",
"                  ..$$%%$$..        ..$$%%$$..                  ",
"                  ..$$%%$$..        ..$$%%$$..                  ",
"                  ..$$%%$$..        ..$$%%$$..                  ",
"                  ..$$%%%%$$..    ..$$%%%%$$..                  ",
"                  ..$$%%%%$$..    ..$$%%%%$$..                  ",
"                  ..$$%%%%$$..    ..$$%%%%$$..                  ",
"                  ..$$%%%%$$..    ..$$%%%%$$..                  ",
"                  ..$$%%%%$$..    ..$$%%%%$$..                  ",
"                  ..$$%%%%$$..    ..$$%%%%$$..                  ",
"                  ..$$%%%%$$..    ..$$%%%%$$..                  ",
"                  ..$$%%%%$$..    ..$$%%%%$$..                  ",
"                    ..$$%%$$..    ..$$%%$$..                    ",
"                    ..$$%%$$..    ..$$%%$$..                    ",
"                    ..$$%%$$........$$%%$$..                    ",
"                    ..$$%%$$........$$%%$$..                    ",
"                  ....$$%%%%$$$$$$$$%%%%$$....                  ",
"                  ....$$%%%%$$$$$$$$%%%%$$....                  ",
"                ..%%$$%%%%%%%%%%%%%%%%%%%%$$%%..                ",
"                ..%%$$%%%%%%%%%%%%%%%%%%%%$$%%..                ",
"                ....$$%%@@++%%%%%%%%++@@%%$$....                ",
"                ....$$%%@@++%%%%%%%%++@@%%$$....                ",
"              ..%%%%$$%%%%++@@%%%%@@++%%%%$$%%%%..              ",
"              ..%%%%$$%%%%++@@%%%%@@++%%%%$$%%%%..              ",
"                ....$$$$$$%%%%&&&&%%%%$$$$$$....                ",
"                ....$$$$$$%%%%&&&&%%%%$$$$$$....                ",
"                    ..XXoo$$%%%%%%%%$$ooXX..                    ",
"                    ..XXoo$$%%%%%%%%$$ooXX..                    ",
"                    ..ooXXooooooooooooXXoo..                    ",
"                    ..ooXXooooooooooooXXoo..                    ",
"                  ..########XXXXXXXX########..                  ",
"                  ..########XXXXXXXX########..                  ",
"                ..##OOOOOOOO##XXXX##OOOOOOOO##..                ",
"                ..##OOOOOOOO##XXXX##OOOOOOOO##..                ",
"                ..XXXXXX##OOOOXXXXOOOO##XXXXXX..                ",
"                ..XXXXXX##OOOOXXXXOOOO##XXXXXX..                ",
"              ..ooXXXX..##OOOOXXXXOOOO##..XXXXoo..              ",
"              ..ooXXXX..##OOOOXXXXOOOO##..XXXXoo..              ",
"              ..ooXXXX....##OOXXXXOO##....XXXXoo..              ",
"              ..ooXXXX....##OOXXXXOO##....XXXXoo..              ",
"              ..##OOOO....ooXXooooXXoo....OOOO##..              ",
"              ..##OOOO....ooXXooooXXoo....OOOO##..              ",
"                ..OOOO..####OOXXXXOO####..OOOO..                ",
"                ..OOOO..####OOXXXXOO####..OOOO..                ",
"                  ......##OOOOXXXXOOOO##......                  ",
"                  ......##OOOOXXXXOOOO##......                  ",
"                      ..##OOOO....OOOO##..                      ",
"                      ..##OOOO....OOOO##..                      ",
"                    ..##OOOOOO....OOOOOO##..                    ",
"                    ..##OOOOOO....OOOOOO##..                    ",
"                    ..##OOOOOO....OOOOOO##..                    ",
"                    ..##OOOOOO....OOOOOO##..                    ",
"                    ..ooXXXX..    ..XXXXoo..                    ",
"                    ..ooXXXX..    ..XXXXoo..                    ",
"                  ..ooXXXXXX..    ..XXXXXXoo..                  ",
"                  ..ooXXXXXX..    ..XXXXXXoo..                  ",
"                ..ooooXXXX..        ..XXXXoooo..                ",
"                ..ooooXXXX..        ..XXXXoooo..                ",
"              ..####OOOOOO..        ..OOOOOO####..              ",
"              ..####OOOOOO..        ..OOOOOO####..              "
};
