/* XPM */
static char *f25181f2f37f4ef9ca66b5fe1f08d2f3lMGMh9g819ofW4OQ[] = {
/* columns rows colors chars-per-pixel */
"64 64 6 1 ",
"  c #6F4D20",
". c #826133",
"X c #997645",
"o c #A98756",
"O c #CAAD84",
"+ c #CAAD85",
/* pixels */
"  ............................................................  ",
"  ............................................................  ",
"..OOOOOOOOOOOOOOOOOOOOOOOOOOOOOOOOOOOOOOOOOOOOOOOOOOOOOOOOOOOO..",
"..OOOOOOOOOOOOOOOOOOOOOOOOOOOOOOOOOOOOOOOOOOOOOOOOOOOOOOOOOOOO..",
"..OOooooooooooooooooooooooooooooooooooooooooooooooooooooooooOO..",
"..OOooooooooooooooooooooooooooooooooooooooooooooooooooooooooOO..",
"  ....  ....  ....................................  ....  ....  ",
"  ....  ....  ....................................  ....  ....  ",
"..OOOO..oooo..oooooooooooooooooooooooooooooooooooo..oooo..OOOO..",
"..OOOO..oooo..oooooooooooooooooooooooooooooooooooo..oooo..OOOO..",
"..OOoo..XXoo..XXXXXXXXXXXXXXXXXXXXXXXXXXXXXXXXXXXX..ooXX..ooOO..",
"..OOoo..XXoo..XXXXXXXXXXXXXXXXXXXXXXXXXXXXXXXXXXXX..ooXX..ooOO..",
"..OOoo..XXoo  ....................................  ooXX..ooOO..",
"..OOoo..XXoo  ....................................  ooXX..ooOO..",
"..OOoo..XXoo..XXXX..XXXX...XXXX..XXXX...XXXX..XXXX..ooXX..ooOO..",
"..OOoo..XXoo..XXXX..XXXX...XXXX..XXXX...XXXX..XXXX..ooXX..ooOO..",
"..OOoo..XXoo..XXoo..ooXX...XXoo..ooXX...XXoo..ooXX..ooXX..ooOO..",
"..OOoo..XXoo..XXoo..ooXX...XXoo..ooXX...XXoo..ooXX..ooXX..ooOO..",
"..OOoo..XXoo..XXoo..ooXX...XXoo..ooXX...XXoo..ooXX..ooXX..ooOO..",
"..OOoo..XXoo..XXoo..ooXX...XXoo..ooXX...XXoo..ooXX..ooXX..ooOO..",
"..OOoo..XXoo..XXoo..ooXX...XXoo..ooXX...XXoo..ooXX..ooXX..ooOO..",
"..OOoo..XXoo..XXoo..ooXX...XXoo..ooXX...XXoo..ooXX..ooXX..ooOO..",
"..OOoo..XXoo..XXoo..ooXX...XXoo..ooXX...XXoo..ooXX..ooXX..ooOO..",
"..OOoo..XXoo..XXoo..ooXX...XXoo..ooXX...XXoo..ooXX..ooXX..ooOO..",
"..OOoo..XXoo..XXoo..ooXX...XXoo..ooXX...XXoo..ooXX..ooXX..ooOO..",
"..OOoo..XXoo..XXoo..ooXX...XXoo..ooXX...XXoo..ooXX..ooXX..ooOO..",
"..OOoo..XXoo..XXoo..ooXX...XXoo..ooXX...XXoo..ooXX..ooXX..ooOO..",
"..OOoo..XXoo..XXoo..ooXX...XXoo..ooXX...XXoo..ooXX..ooXX..ooOO..",
"..OOoo..XXoo..XXoo..ooXX...XXoo..ooXX...XXoo..ooXX..ooXX..ooOO..",
"..OOoo..XXoo..XXoo..ooXX...XXoo..ooXX...XXoo..ooXX..ooXX..ooOO..",
"..OOoo..XXoo..XXoo..ooXX...XXoo..ooXX...XXoo..ooXX..ooXX..ooOO..",
"..OOoo..XXoo..XXoo..ooXX...XXoo..ooXX...XXoo..ooXX..ooXX..ooOO..",
"..OOoo..XXoo..XXoo..ooXX...XXoo..ooXX...XXoo..ooXX..ooXX..ooOO..",
"..OOoo..XXoo..XXoo..ooXX...XXoo..ooXX...XXoo..ooXX..ooXX..ooOO..",
"..OOoo..XXoo..XXoo..ooXX...XXoo..ooXX...XXoo..ooXX..ooXX..ooOO..",
"..OOoo..XXoo..XXoo..ooXX...XXoo..ooXX...XXoo..ooXX..ooXX..ooOO..",
"..OOoo..XXoo..XXoo..ooXX...XXoo..ooXX...XXoo..ooXX..ooXX..ooOO..",
"..OOoo..XXoo..XXoo..ooXX...XXoo..ooXX...XXoo..ooXX..ooXX..ooOO..",
"..OOoo..XXoo..XXoo..ooXX...XXoo..ooXX...XXoo..ooXX..ooXX..ooOO..",
"..OOoo..XXoo..XXoo..ooXX...XXoo..ooXX...XXoo..ooXX..ooXX..ooOO..",
"..OOoo..XXoo..XXoo..ooXX...XXoo..ooXX...XXoo..ooXX..ooXX..ooOO..",
"..OOoo..XXoo..XXoo..ooXX...XXoo..ooXX...XXoo..ooXX..ooXX..ooOO..",
"..OOoo..XXoo..XXoo..ooXX...XXoo..ooXX...XXoo..ooXX..ooXX..ooOO..",
"..OOoo..XXoo..XXoo..ooXX...XXoo..ooXX...XXoo..ooXX..ooXX..ooOO..",
"..OOoo..XXoo..XXoo..ooXX...XXoo..ooXX...XXoo..ooXX..ooXX..ooOO..",
"..OOoo..XXoo..XXoo..ooXX...XXoo..ooXX...XXoo..ooXX..ooXX..ooOO..",
"..OOoo..XXoo..XXoo..ooXX...XXoo..ooXX...XXoo..ooXX..ooXX..ooOO..",
"..OOoo..XXoo..XXoo..ooXX...XXoo..ooXX...XXoo..ooXX..ooXX..ooOO..",
"..OOoo..XXoo..XXXX..XXXX...XXXX..XXXX...XXXX..XXXX..ooXX..ooOO..",
"..OOoo..XXoo..XXXX..XXXX...XXXX..XXXX...XXXX..XXXX..ooXX..ooOO..",
"..OOoo..XXoo  ....................................  ooXX..ooOO..",
"..OOoo..XXoo  ....................................  ooXX..ooOO..",
"..OOoo..XXoo..XXXXXXXXXXXXXXXXXXXXXXXXXXXXXXXXXXXX..ooXX..ooOO..",
"..OOoo..XXoo..XXXXXXXXXXXXXXXXXXXXXXXXXXXXXXXXXXXX..ooXX..ooOO..",
"..OO++..oooo..oooooooooooooooooooooooooooooooooooo..oooo..++OO..",
"..OO++..oooo..oooooooooooooooooooooooooooooooooooo..oooo..OOOO..",
"  ....  ....  ....................................  ....  ....  ",
"  ....  ....  ....................................  ....  ....  ",
"..++oooooooooooooooooooooooooooooooooooooooooooooooooooooooo++..",
"..++oooooooooooooooooooooooooooooooooooooooooooooooooooooooo++..",
"..++++++++++++++++++++++++++++++++++++++++++++++++++++++++++++..",
"..++++++++++++++++++++++++++++++++++++++++++++++++++++++++++++..",
"  ............................................................  ",
"  ............................................................  "
};
